# xmcd
#
# Track frame offsets:
#	150
#	3485
#	14949
#	32112
#	43004
#	51735
#	64370
#	77662
#	90052
#	102785
#	114760
#	128708
#	138058
#	152008
#	161448
#	174873
#	186223
#	198698
#	238029
#	250251
#	260673
#	273869
#
# Disc length: 3833 seconds
#
# Revision: 0
# Processed by: cddbd v1.5.2PL0 Copyright (c) Steve Scherf et al.
# Submitted via: EasyCDDAExtractor 10.2.0.1
#
DISCID=260ef716
DTITLE=Vila Verde e o Seu Regional - Forró do bom
DYEAR=2006
DGENRE=Sertanejo
TTITLE0=Abertura
TTITLE1=Açucarado
TTITLE2=Barquinho de ouro
TTITLE3=Rei do laço
TTITLE4=Barbaridade
TTITLE5=Quebra topete
TTITLE6=Limpa banco
TTITLE7=Crepúsculo
TTITLE8=Casa da vovó
TTITLE9=Praia da solidão
TTITLE10=Boi tufão
TTITLE11=Mulher, sempre mulher
TTITLE12=O relógio da matriz
TTITLE13=A gaivota
TTITLE14=Desaventurada
TTITLE15=Casa de esquina
TTITLE16=Soca pilão
TTITLE17=Quadrilha - soleada
TTITLE18=Fofinha
TTITLE19=Quadrilha
TTITLE20=Eu e a Dinha
TTITLE21=O doutor e a empregada
EXTD=
EXTT0=
EXTT1=
EXTT2=
EXTT3=
EXTT4=
EXTT5=
EXTT6=
EXTT7=
EXTT8=
EXTT9=
EXTT10=
EXTT11=
EXTT12=
EXTT13=
EXTT14=
EXTT15=
EXTT16=
EXTT17=
EXTT18=
EXTT19=
EXTT20=
EXTT21=
PLAYORDER=
